# xmcd CD database file
#
# Track frame offsets:
#	150
#	25125
#	43125
#
# Disc length: 905 seconds
#
# Revision: 0
# Processed by: cddbd v1.5PL3 Copyright (c) Steve Scherf et al.
# Submitted via: CDex 1.40Release
#
DISCID=1e038703
DTITLE=The gardens - 愛のうた
DYEAR=1900
DGENRE=Techno
TTITLE0=愛のうた
TTITLE1=寝顔
TTITLE2=愛のうた(Instrumental)
EXTD=
EXTT0=
EXTT1=
EXTT2=
PLAYORDER=
